<?xml version="1.0" encoding="UTF-8" standalone="no"?>
<!-- Created with Inkscape (http://www.inkscape.org/) -->

<svg
   width="128mm"
   height="128mm"
   viewBox="0 0 128 128"
   version="1.1"
   id="svg1"
   xmlns="http://www.w3.org/2000/svg"
   xmlns:svg="http://www.w3.org/2000/svg">
  <defs
     id="defs1" />
  <g
     id="layer1">
    <path
       d="M 38.13382,100.38556 V 85.495946 q 7.796742,5.685125 18.192398,5.685125 6.55143,0 10.17908,-2.81549 3.681795,-2.815491 3.681795,-7.850887 0,-5.197828 -4.548099,-8.013318 -4.493956,-2.81549 -12.398986,-2.81549 H 46.255426 V 56.583027 h 6.443141 q 15.160333,0 15.160333,-10.070792 0,-9.475208 -11.64097,-9.475208 -7.796742,0 -15.160332,5.035397 V 28.10326 q 8.175751,-4.114947 19.058703,-4.114947 11.91169,0 18.517263,5.36026 6.659718,5.360261 6.659718,13.915019 0,15.214477 -15.431053,19.058704 v 0.27072 q 8.229895,1.028737 12.994571,6.009989 4.764675,4.927108 4.764675,12.128266 0,10.882952 -7.959174,17.217805 -7.959174,6.334854 -21.982482,6.334854 -12.019977,0 -19.545999,-3.89837 z"
       id="text4"
       style="font-weight:bold;font-size:110.887px;font-family:'Microsoft PhagsPa';-inkscape-font-specification:'Microsoft PhagsPa Bold';text-align:center;text-anchor:middle;fill:#000000;stroke:#d1d1d1;stroke-width:0.271673"
       aria-label="3" />
  </g>
</svg>
