<?xml version="1.0" encoding="UTF-8" standalone="no"?>
<!-- Created with Inkscape (http://www.inkscape.org/) -->

<svg
   width="128mm"
   height="128mm"
   viewBox="0 0 128 128"
   version="1.1"
   id="svg1"
   xmlns="http://www.w3.org/2000/svg"
   xmlns:svg="http://www.w3.org/2000/svg">
  <defs
     id="defs1" />
  <g
     id="layer1">
    <path
       d="m 62.471567,39.040357 q -9.150343,0 -14.618892,6.930438 -5.414404,6.876293 -5.414404,18.246542 0,11.478538 5.36026,18.246543 5.414405,6.713861 14.239884,6.713861 9.096199,0 14.348171,-6.497285 5.306117,-6.605573 5.306117,-18.138254 0,-11.965834 -5.08954,-18.679695 -5.089541,-6.82215 -14.131596,-6.82215 z m 13.860875,62.428083 q 2.815491,3.03207 5.360261,4.98125 2.54477,1.94919 5.08954,3.08621 2.598914,1.13703 5.306116,1.57018 2.707202,0.43315 5.901701,0.43315 0.866304,0 1.895041,-0.10829 1.028739,-0.0541 2.057469,-0.27072 1.08289,-0.16243 2.05748,-0.43315 0.97459,-0.21658 1.78675,-0.54144 v 14.72718 q -1.73261,0.4873 -4.81882,0.97459 -3.032064,0.4873 -7.417732,0.4873 -5.306116,0 -9.800072,-1.73261 -4.439811,-1.73261 -8.554759,-4.76468 -4.060803,-2.97792 -7.959174,-7.03872 -3.844227,-4.0608 -8.013318,-8.71719 -7.959175,-0.21658 -14.45646,-3.30279 Q 38.26918,97.7325 33.666936,92.534672 29.064692,87.2827 26.519922,80.243974 24.029296,73.205249 24.029296,65.137786 q 0,-18.463119 10.612233,-29.779224 10.666376,-11.370249 28.425623,-11.370249 16.513933,0 26.747157,10.937097 10.287371,10.828808 10.287371,28.642199 0,13.915019 -6.280712,23.931667 -6.280709,9.90836 -17.488526,13.969164 z"
       id="text15"
       style="font-weight:bold;font-size:110.887px;font-family:'Microsoft PhagsPa';-inkscape-font-specification:'Microsoft PhagsPa Bold';text-align:center;text-anchor:middle;display:inline;fill:#000000;stroke:#d1d1d1;stroke-width:0.271673"
       aria-label="Q" />
  </g>
</svg>
