<?xml version="1.0" encoding="UTF-8" standalone="no"?>
<!-- Created with Inkscape (http://www.inkscape.org/) -->

<svg
   width="128mm"
   height="128mm"
   viewBox="0 0 128 128"
   version="1.1"
   id="svg1"
   xmlns="http://www.w3.org/2000/svg"
   xmlns:svg="http://www.w3.org/2000/svg">
  <defs
     id="defs1" />
  <g
     id="layer1">
    <path
       d="m 84.751841,26.099931 v 14.294027 q -5.901701,-3.356931 -12.886282,-3.356931 -8.608903,0 -13.915019,6.605574 -5.251973,6.551429 -5.468549,17.596814 h 0.324864 q 5.576837,-8.229895 16.297358,-8.229895 9.745927,0 15.431052,6.605574 5.739269,6.605573 5.739269,17.488526 0,11.695113 -7.580167,19.437711 -7.580166,7.742599 -19.275279,7.742599 -13.102859,0 -20.466448,-9.475208 -7.36359,-9.475208 -7.36359,-26.584725 0,-20.141585 9.475207,-32.161562 9.475208,-12.074122 25.718421,-12.074122 8.987911,0 13.969163,2.111618 z M 63.3108,65.679226 q -4.710532,0 -7.526022,3.302787 -2.761346,3.302787 -2.761346,8.446471 0,5.685124 2.81549,9.745928 2.869634,4.006659 7.580166,4.006659 4.602244,0 7.36359,-3.573507 2.761346,-3.627651 2.761346,-9.421063 0,-12.507275 -10.233224,-12.507275 z"
       id="text7"
       style="font-weight:bold;font-size:110.887px;font-family:'Microsoft PhagsPa';-inkscape-font-specification:'Microsoft PhagsPa Bold';text-align:center;text-anchor:middle;fill:#d40000;stroke:#d1d1d1;stroke-width:0.271673"
       aria-label="6" />
  </g>
</svg>
