<?xml version="1.0" encoding="UTF-8" standalone="no"?>
<!-- Created with Inkscape (http://www.inkscape.org/) -->

<svg
   width="128mm"
   height="128mm"
   viewBox="0 0 128 128"
   version="1.1"
   id="svg1"
   xmlns="http://www.w3.org/2000/svg"
   xmlns:svg="http://www.w3.org/2000/svg">
  <defs
     id="defs1" />
  <g
     id="layer1">
    <path
       d="m 50.262085,62.593016 v -0.27072 Q 36.942651,56.853747 36.942651,44.617194 q 0,-8.987912 7.147013,-14.781324 7.147014,-5.847557 18.463119,-5.847557 11.532682,0 18.408975,5.468548 6.876294,5.414405 6.876294,14.023308 0,12.72385 -14.72718,18.733839 v 0.216576 q 7.90503,2.328194 12.236554,7.688454 4.385667,5.306116 4.385667,11.965834 0,10.287368 -7.63431,16.243213 -7.580166,5.955845 -21.224465,5.955845 -11.803402,0 -19.058703,-5.793413 -7.201158,-5.847557 -7.201158,-15.431053 0,-13.915019 15.647628,-20.466448 z M 71.757271,44.942058 q 0,-3.952515 -2.54477,-6.280709 -2.490626,-2.382338 -6.659718,-2.382338 -4.060803,0 -6.768005,2.490626 -2.653058,2.436482 -2.653058,6.280709 0,7.255302 9.312775,10.991241 9.312776,-3.844227 9.312776,-11.099529 z M 61.686479,69.090301 q -10.882953,4.27738 -10.882953,13.102859 0,4.223235 3.302787,6.984581 3.35693,2.761347 8.121606,2.761347 5.143684,0 8.284039,-2.707203 3.140354,-2.707202 3.140354,-7.147013 0,-8.879623 -11.965833,-12.994571 z"
       id="text9"
       style="font-weight:bold;font-size:110.887px;font-family:'Microsoft PhagsPa';-inkscape-font-specification:'Microsoft PhagsPa Bold';text-align:center;text-anchor:middle;fill:#d40000;stroke:#d1d1d1;stroke-width:0.271673"
       aria-label="8" />
  </g>
</svg>
