<?xml version="1.0" encoding="UTF-8" standalone="no"?>
<!-- Created with Inkscape (http://www.inkscape.org/) -->

<svg
   width="128mm"
   height="128mm"
   viewBox="0 0 128 128"
   version="1.1"
   id="svg1"
   xmlns="http://www.w3.org/2000/svg"
   xmlns:svg="http://www.w3.org/2000/svg">
  <defs
     id="defs1" />
  <g
     id="layer1">
    <path
       d="M 38.837692,101.25186 V 87.174412 q 6.118277,4.006659 14.72718,4.006659 8.987911,0 13.860875,-6.064133 4.927108,-6.118277 4.981252,-17.326094 l -0.324864,-0.108288 q -5.143684,7.63431 -15.647629,7.63431 -9.529351,0 -15.81006,-6.659717 -6.226565,-6.659717 -6.226565,-17.27195 0,-12.398986 7.63431,-19.870864 7.63431,-7.526022 19.762576,-7.526022 12.45313,0 19.81672,9.421064 7.417734,9.421063 7.417734,26.963733 0,20.791313 -8.933768,32.378138 -8.879623,11.532682 -24.852116,11.532682 -9.475207,0 -16.405645,-3.03207 z M 61.30747,37.037027 q -4.439811,0 -7.309446,3.627651 -2.869634,3.573507 -2.869634,9.258632 0,5.901701 2.81549,9.312775 2.869635,3.356931 7.742599,3.356931 4.439811,0 7.255301,-3.194499 2.815491,-3.248642 2.815491,-8.121606 0,-6.118277 -2.977923,-10.17908 -2.923778,-4.060804 -7.471878,-4.060804 z"
       id="text18"
       style="font-weight:bold;font-size:110.887px;font-family:'Microsoft PhagsPa';-inkscape-font-specification:'Microsoft PhagsPa Bold';text-align:center;text-anchor:middle;fill:#d40000;stroke:#d1d1d1;stroke-width:0.271673"
       aria-label="9" />
  </g>
</svg>
